<svg width="362" height="546" viewBox="0 0 362 546" fill="none" xmlns="http://www.w3.org/2000/svg">
<path d="M205.15 118.14L205.22 120.3L207.11 121.5L205.43 122.88L203.89 124.44L206.41 126.12L209.14 125.94L211.38 124.2L213.06 121.68L214.11 119.34L214.18 119.4L219.99 125.46L225.17 133.08L227.27 134.94L230.21 135.72L232.59 137.34L236.09 144.6L236.93 145.38L237.84 146.22H237.91L241.83 147.78L243.86 151.38L246.1 158.7L246.52 157.38L247.01 156.84L247.92 157.02L249.46 157.74L249.04 159.12L253.52 163.32L254.99 165.42V167.94L253.8 168.96L252.12 169.62L250.58 171.12H250.65L251.77 170.88L253.03 170.58L253.31 170.46L253.87 170.16L253.94 170.22L257.44 176.76L257.93 180.12L253.94 180.72H253.87L254.71 178.44L253.66 176.64L251.84 176.4L250.58 178.8L251 180.66L252.19 181.98L252.82 183.42L251.63 185.52L250.65 184.92L248.9 183.78L246.1 182.28L243.3 181.68L240.57 182.7L238.47 185.1L239.24 186.36L241.76 186.06L245.12 183.66L247.43 185.76L249.46 188.28L251.98 190.38L255.55 191.28L262.97 191.16L265.49 189.78L263.81 186.54L268.08 184.86L269.76 184.38L271.51 184.5H271.58L273.54 185.46L275.29 187.14L276.62 189.06L277.81 194.64L280.33 201.84L280.4 203.7L280.47 205.62L278.44 204.36L276.27 200.64L274.38 199.86L274.31 200.88L275.08 205.44L275.15 205.74L276.06 207.48L277.11 207.96L278.09 208.32H278.16H280.33L282.01 209.04L283.06 214.38L284.32 218.1L284.53 218.7L284.88 220.98L270.39 219.66L267.66 220.44H265.21H263.18L261.71 221.82L260.66 223.5L259.4 224.28L258.28 225.12L257.3 228.78L256.46 230.1L254.15 234.66L250.16 235.5L249.32 235.26L248.69 234.84L250.58 233.82L251.42 232.08L250.86 229.44L250.93 227.64L250.72 225.9L249.53 224.46L247.5 224.64L244.63 223.38L242.04 221.64L239.38 220.32H236.51L224.26 217.74L217.47 218.34L215.44 216.6L214.81 213.66L212.29 212.04L209.7 211.14L207.81 208.74L205.36 209.34L208.86 198.6L209.28 196.86L209.91 195.18L211.94 193.5L214.18 192.18L215.51 190.14L214.46 187.98L212.57 186.78L211.17 185.16L208.86 180.54L204.59 175.08L203.96 171.72L202.21 170.28L200.88 168.96L200.74 166.08L203.19 161.1L202 158.16L198.99 152.52L198.92 146.52L201.65 143.04L203.54 139.44L202 138.42L200.67 136.92L198.22 134.58L191.15 130.38L187.09 128.34L182.33 128.28L177.78 129.84L178.48 127.44L179.81 125.4L186.18 122.88L193.6 122.04L196.75 121.26L199.55 119.88L202.63 119.1L205.15 118.14Z" fill="#6F9C76" stroke="white" stroke-width="0.5" stroke-linecap="round" stroke-linejoin="round"/>
<path d="M205.15 118.139L202.63 119.099L199.55 119.879L196.75 121.259L193.6 122.039L186.18 122.879L179.81 125.399L182.82 115.919L180.86 113.699L175.68 110.999L170.64 110.339L168.26 111.719L165.74 112.259L166.02 110.339L167.56 108.359L165.67 105.539L161.33 105.119L160.77 100.619L155.73 98.9994L150.48 99.1194L150.13 99.7794L149.85 100.499L148.31 101.279L146.7 101.939L143.9 104.039L139.98 105.539L137.46 102.359L133.47 100.199L127.87 100.319L124.79 100.139L121.85 100.379L121.43 102.419L122.69 103.919L125.07 104.219L125.21 105.359V106.619L125.84 109.019L125.98 111.359L123.11 115.139L118.63 118.259L111.14 122.339L84.4697 123.539L86.5697 118.499L85.7997 117.539L85.0297 116.279L85.5897 114.659L86.4297 113.099L86.9897 111.539L87.6897 110.159L91.2597 109.139L91.4697 106.259L91.1197 102.959L91.7497 100.919L91.8197 98.8194L91.6797 97.7394L91.3297 96.7794L88.3897 92.6994L87.4097 88.1394L87.1997 83.3394L91.4697 83.8194L91.0497 79.9194L95.2497 75.1794L107.64 73.9794L112.05 73.9194L116.39 74.5794L120.66 74.2194L123.46 68.1594L125.63 68.0994L132.98 68.4594L137.04 68.2194L139.77 66.9594L142.01 60.5994L142.78 60.4194L143.97 61.7394L147.19 64.0194L150.83 65.7594L150.41 62.5794L150.9 59.3994L154.33 57.0594L154.68 54.7194L155.45 54.0594L156.29 53.5794L157.27 52.8594L176.38 66.1794L176.52 66.4194L177.71 68.0394L179.46 70.0194L182.96 72.8394L185.13 75.2394L183.24 76.1394H183.17L182.12 75.7194L181.98 75.6594H181.91L180.23 73.7994L179.32 73.3794L176.38 72.9594L175.12 73.2594L175.75 74.3994L175.96 74.7594L184.29 81.4794L187.58 83.0394L186.32 81.2994L185.55 79.6794L185.9 78.5394L188.14 78.0594L189.19 78.6594L190.94 83.0394L192.48 85.6794L198.64 96.2394L197.38 95.8794L193.95 94.7394H191.85L190.94 96.7194L192.2 97.1994L194.79 97.6194L197.17 98.8794V99.0594L197.52 102.059H198.64L199.13 101.279L199.62 100.919L200.18 100.679L200.95 100.259L201.72 103.019L201.86 103.379L204.1 107.879L207.18 111.899L210.33 113.639L210.54 113.819L210.89 114.059V115.079L210.12 116.039L208.65 116.519L208.23 116.099L206.41 113.639L204.52 112.739L200.11 111.779L197.52 110.759L198.71 112.199L199.34 112.979L205.15 117.659V118.139Z" fill="#6F9C76" stroke="white" stroke-width="0.5" stroke-linecap="round" stroke-linejoin="round"/>
<path d="M157.27 52.8598L156.29 53.5798L155.45 54.0598L144.46 47.5798L140.68 46.0798L137.32 45.4198L136.83 45.2398L136.34 45.0598L133.47 43.1398L132.35 42.5998L131.23 42.4198L129.9 42.4798L129.62 41.0998L127.52 35.6998L127.94 35.8798V34.7998L122.06 32.2798L107.85 22.2598L96.23 10.7398L90.35 7.9798L81.11 6.1198L78.66 4.6198L78.31 2.4598L81.74 1.1998L82.79 1.01981L86.15 0.539806L92.87 0.299805L96.09 0.779804L98.33 2.1598L99.8 6.7198L101.27 8.6398L122.41 30.0598L125.49 31.9798L131.79 35.0998L157.27 52.8598ZM97.56 30.2998L89.3 27.1798L86.29 25.6798H84.26L84.68 29.0998L85.8 30.0598L87.48 31.1998L88.53 32.5798L87.48 34.3798L86.29 34.7398L85.1 34.1398L84.05 33.3598L80.9 31.9798L74.88 27.4798L71.45 26.2198L73.2 27.8998L76.35 30.2398L78.17 31.9198L74.25 31.3198L70.4 29.9398L62.63 26.2198L56.4 22.0198L52.76 20.8798L52.41 20.6998L51.01 19.9198L49.68 19.4398L49.47 20.4598L47.72 19.4398L47.02 18.0598L46.74 16.4398L46.11 14.6398L45.06 13.0798L44.43 12.3598L42.75 10.4998L41.7 8.8798L45.2 7.3798L51.57 2.2798L54.37 1.1998H54.44L67.04 2.1598L73.62 1.4998L76 1.73981L76.98 3.6598L76.77 6.5998L77.26 7.6198L78.66 7.9798L79.99 8.1598L83.84 8.9998L84.68 9.4198L85.38 10.6198L87.13 10.5598L88.46 10.1998L89.02 10.0798L89.79 9.9598L90.35 9.8998L91.61 10.5598L92.17 10.7998L96.65 15.0598L103.16 21.1198V21.1798L100.99 25.1998L97.56 30.2998ZM12.86 46.4998L11.53 47.5198L10.2 48.5998L6.14 48.8398L2.36 47.7598L0.75 45.9598V40.1998L1.17 38.7598L2.29 38.9398L3.34 40.1398L4.04 41.5798L6.84 42.3598L10.13 42.5998L10.97 43.0798L12.86 46.4998ZM39.46 30.0598L36.94 28.4998L34.49 25.2598L30.57 18.5398L32.32 16.1398L32.74 13.0798L33.79 10.5598L37.29 9.8998L39.11 10.3798H39.18L39.32 11.5798L38.69 13.2598L38.27 15.1198L38.34 17.0398L38.55 18.5998V18.7198L38.69 19.0198L39.25 20.0998L40.02 20.8198L40.58 21.4198L41.28 21.5398L44.43 21.4198L44.92 21.8398L45.13 23.9398L45.55 24.7798L47.37 25.7998L49.89 26.6998L51.99 27.7198L52.13 28.0798L52.69 29.0998L51.57 30.0598H49.47L47.16 29.4598L45.55 28.6198L44.43 28.3798L41.49 29.8198L39.46 30.0598Z" fill="#6F9C76" stroke="white" stroke-width="0.5" stroke-linecap="round" stroke-linejoin="round"/>
<path d="M127.52 35.7001L129.62 41.1001L129.9 42.4801L127.94 42.6001L126.68 43.0201L126.47 43.2601L126.12 43.7401L125.49 44.0401L123.32 42.6601L122.48 42.5401L117.23 42.6601L115.76 42.3001L104.28 33.7201L99.3798 30.9601H99.3098L97.5598 30.3001L100.99 25.2001L103.16 21.1801V21.1201L110.86 28.3801L115.9 31.0801L127.52 35.7001ZM155.45 54.0601L154.68 54.7201L154.33 57.0601L150.9 59.4001L150.41 62.5801L150.83 65.7601L147.19 64.0201L143.97 61.7401L142.78 60.4201L142.01 60.6001L139.77 66.9601L137.04 68.2201L132.98 68.4601L125.63 68.1001L123.46 68.1601L120.66 74.2201L116.39 74.5801L112.05 73.9201L107.64 73.9801L95.2498 75.1801L91.0498 79.9201L91.4698 83.8201L87.1998 83.3401L84.1198 85.3201L80.6898 86.8201L75.1598 87.2401H73.9698L74.9498 83.8201V75.6601L75.2998 74.4601L75.0198 73.6801L73.1298 73.3801L68.6498 71.4001L66.9698 69.9601L65.8498 67.3201L65.6398 66.8401L64.8698 63.6001L64.7998 61.7401L66.7598 59.9401L70.3298 58.4401L74.2498 57.3601L77.5398 56.9401L79.0098 56.2801L82.5098 52.2601L82.9298 51.9601L83.5598 51.5401L84.7498 50.9401L86.2198 50.4601L88.0398 50.2201L86.4998 47.8201L85.5898 46.7401L84.6798 45.6601L82.2998 43.6201L79.1498 41.5801L67.2498 35.5801L64.7998 33.0001L69.9798 33.1201L74.9498 34.8601L84.6798 39.7201L93.9198 41.7001L96.3698 43.0801L100.22 45.9601L101.13 47.4601L99.1698 48.3001L99.5898 49.2601L100.15 50.2201L99.1698 51.1801L102.53 53.1601L110.51 51.4801L125.07 46.5001L129.06 46.8001L137.6 48.8401L147.75 52.8001L155.45 54.0601Z" fill="#6F9C76" stroke="white" stroke-width="0.5" stroke-linecap="round" stroke-linejoin="round"/>
<path d="M87.2 83.3398L87.41 88.1398L88.39 92.6998L91.33 96.7799L91.68 97.7398L91.82 98.8198L91.75 100.92L91.12 102.96L91.47 106.26L91.26 109.14L87.69 110.16L86.9901 111.54L86.43 113.1L85.59 114.66L85.03 116.28L85.8 117.54L86.57 118.5L84.47 123.54L111.14 122.34L115.48 124.08L118 127.5L120.45 132.9L119.61 137.76L111 140.52L101.9 141.48L96.02 140.94L91.54 143.1L89.09 147.78L84.96 148.14L84.33 150.24V152.04L88.11 154.56L94.27 161.34L78.52 164.88L70.61 164.82L63.47 162.3L64.73 170.52L64.38 183.48L62.84 183.3L61.51 182.76L57.17 180.66L53.0401 179.16L48.28 178.8L44.01 177.42L42.19 176.46L42.82 175.92L43.03 175.2L44.64 170.94L44.85 170.76L44.99 170.64L45.34 169.44L46.88 166.62L48.28 153L44.43 144.3L44.71 142.8L44.99 132.9V132.78L44.64 129.42L44.15 127.8L43.31 126.6L42.61 125.16L44.15 124.5L46.32 124.14L47.72 123.78L57.1 116.52L62 114.42L64.03 112.92L65.08 109.5L67.0401 105.96L68.09 101.1L73.34 89.5798L73.48 88.9198L73.97 87.2398H75.16L80.69 86.8198L84.12 85.3198L87.2 83.3398ZM10.13 105.96L8.31004 105.36L7.54004 104.04L8.03004 102.66L10.13 102.06H17.34L20.56 102.78L23.85 103.5L30.71 105.78L37.29 109.02L42.82 113.64H42.75L40.16 113.16L35.47 111.18L32.74 110.76L36.9401 114.84L40.23 118.08L41.7 120.3L37.85 119.88L35.33 118.2L33.58 116.4L32.25 115.56L30.64 114.84L23.99 109.74L20.7 108.48L17.34 107.16L14.96 106.62L13.7 106.32L10.13 105.96Z" fill="#6F9C76" stroke="white" stroke-width="0.5" stroke-linecap="round" stroke-linejoin="round"/>
<path d="M42.1901 176.46L44.0101 177.42L48.2801 178.8L53.0401 179.16L57.1701 180.66L61.5101 182.76L62.4201 188.52L59.4801 193.86L54.4401 197.4L54.2301 198.42L53.5301 199.68L50.8001 200.76L48.9801 204.18L51.3601 208.14L55.4201 222.18L56.4001 224.7H59.7601L62.4901 223.62L65.3601 225.48L68.6501 225.36L71.0301 227.04L72.7801 229.02L73.1301 231.66L73.0601 234.48L74.7401 240L75.3001 242.76L76.8401 245.22L79.0801 245.88L80.9701 246.96L80.5501 248.64L79.9201 250.44L80.0601 254.22L79.9201 257.4L78.7301 258.96L77.7501 260.58L79.7101 263.7L77.6801 265.02L74.3201 263.4L73.4101 264.78L73.3401 266.46L72.0801 267.6L71.1001 267.84L71.2401 267.6L71.3801 267.36L69.0001 268.32L68.0201 270.24L67.7401 271.68L67.1101 272.94L63.6801 274.44L62.9101 275.88L62.4901 277.38L60.5301 278.52L58.4301 279.48L57.8001 280.98L57.5201 282.66L55.9801 286.02L55.4901 289.74L56.3301 291.3L56.9601 292.74L55.8401 294.06L54.0901 294.66L51.7801 294.84L49.6801 295.38L48.5601 297L47.7901 298.8L49.7501 299.22L50.6601 300.54L48.7001 301.44L46.3901 301.92L45.2701 303.3L44.6401 304.92L42.1901 308.46L40.4401 312.3L40.1601 317.1L40.4401 321.9L46.3901 349.38L46.8101 357.66L44.0101 356.7L41.6301 358.02L39.7401 357.78L38.4801 356.58L35.3301 356.94L32.3201 357.6L28.4701 357.48L21.5401 313.68L20.5601 311.88L21.1901 311.28L21.6801 311.22L22.8701 311.88L23.1501 309.48L23.9201 306.66L24.1301 305.34L24.3401 303.96L23.4301 301.86L22.1701 299.94L21.9601 298.68L21.7501 297.42V292.26L18.0401 276.6L17.5501 274.8L15.6601 271.38L14.0501 264.12L11.3901 258.42L7.33008 242.7V238.2L8.03008 238.5L8.10008 238.56V238.68L8.45008 239.16L9.01008 236.58L8.17009 228.3L7.33008 225.84L9.99008 224.34L12.5101 221.52L14.3301 218.34L15.0301 215.7L15.8001 213.96L20.5601 207.48L20.4901 207.6L18.1101 212.52L15.0301 217.14L15.7301 218.28L15.8701 218.52L17.0601 219.6L18.6001 220.08H20.5601L18.9501 223.92L17.3401 226.68L16.6401 227.16L15.8701 227.22L15.3101 227.64L15.0301 229.08L15.1701 232.44L15.0301 233.46L12.3001 240.9L12.4401 242.34L12.6501 245.1L15.4501 247.98L16.2201 248.76L13.0001 254.58L18.1801 257.82L25.6701 258.3L29.4501 255.96L28.7501 253.5L27.4901 251.58L27.0701 250.8L26.4401 250.2L25.0401 248.64L23.4301 247.74L22.9401 246.24L28.4001 237.36L28.1901 235.74L27.4901 234.54L26.6501 233.52L26.1601 232.5L26.0201 230.82L26.2301 227.88L26.1601 226.74V226.68L26.0901 226.44L25.6701 225.48L25.3901 225.24L25.0401 225L24.7601 224.4L25.0401 222.84L25.8101 221.52L27.9101 219.18L28.4001 217.62L28.7501 214.68L30.2201 208.86L31.7601 195.18L32.7401 193.62L33.7901 192.84L34.6301 191.94L34.9801 189.9V184.08L35.8901 181.2L38.0601 179.4L40.7201 177.84L42.1901 176.46Z" fill="#6F9C76" stroke="white" stroke-width="0.5" stroke-linecap="round" stroke-linejoin="round"/>
<path d="M28.4705 357.48L32.3205 357.6L35.3305 356.94L38.4805 356.58L39.7405 357.78L41.6305 358.02L44.0105 356.7L46.8105 357.66L50.2405 356.52L56.4005 352.38L60.2505 352.26L64.7305 354.9L69.3505 353.76L73.3405 351.36L77.8205 350.64L79.2905 352.02L79.7105 353.22L80.6905 354.36L84.6805 358.32L87.4805 360.06L87.7605 361.92L86.1505 363L85.7305 367.8L83.6305 369.48L81.1105 370.62L80.4105 374.58L82.3705 378.06L86.2905 377.28L89.7205 378.12L88.5305 380.46L86.1505 381.9L84.1205 385.92L83.2805 390L85.6605 396.6L85.7305 397.86L85.2405 399L82.3005 399.9L77.9605 399.54L74.7405 400.8L72.1505 402.96L71.5205 405.6L71.3105 408.3L67.8805 408.48L65.0105 408.18L63.1205 407.52L61.3005 406.68L59.4105 405.18L57.2405 404.04L54.5105 404.16L51.7105 404.64L43.6605 402.66L42.1905 403.14L40.9305 403.74L38.0605 403.14L35.4005 401.94L31.9705 400.8L33.5805 397.5L34.0005 395.94L33.9305 394.32V394.26L26.2305 370.74L27.2805 367.26L27.2105 369.42L27.8405 370.74L28.6805 371.76L29.4505 373.02L30.9905 377.64L31.7605 378.78H32.7405L33.0205 377.46L33.4405 376.92L33.8605 376.8L34.0005 376.86L33.9305 372.6L33.5805 370.74L32.7405 369.18L31.9705 368.76L29.8705 368.34L28.9605 367.8L28.8205 367.62L28.2605 366.6L28.5405 365.46L29.1005 364.44L29.4505 363.48L28.4705 357.48Z" fill="#6F9C76" stroke="white" stroke-width="0.5" stroke-linecap="round" stroke-linejoin="round"/>
<path d="M31.9698 400.8L35.3998 401.94L38.0598 403.14L40.9298 403.74L42.1898 403.14L43.6598 402.66L51.7098 404.64L54.5098 404.16L57.2398 404.04L59.4098 405.18L61.2998 406.68L63.1198 407.52L65.0098 408.18L67.8798 408.48L71.3098 408.3L71.5198 405.6L72.1498 402.96L74.7398 400.8L77.9598 399.54L82.2998 399.9L85.2398 399L88.7398 399.24L91.5398 400.44L92.0298 402.96L89.8598 404.7L90.0698 406.02L90.1398 407.4L88.1098 409.56L86.3598 411.96L85.6598 413.88L84.8198 415.56L88.8098 419.16L85.2398 421.92L80.5498 420.96L75.2998 422.88L76.3498 426.9L73.1998 426.18L71.0998 422.04L70.2598 421.62L69.2098 421.44L67.2498 423.42L64.7298 424.5L62.9798 423.84L61.1598 424.02L54.9298 428.58L53.1798 429.24L51.2898 429.66L46.5998 431.16L39.1798 427.14L38.9698 429.48L39.9498 432.06L40.4398 433.86L40.5098 435.6L40.4398 435.66L40.1598 436.02L34.1398 422.76L31.9698 412.26L31.7598 411.24V401.22L31.9698 400.8Z" fill="#6F9C76" stroke="white" stroke-width="0.5" stroke-linecap="round" stroke-linejoin="round"/>
<path d="M40.1597 436.02L40.4397 435.66L40.5097 435.6L40.4397 433.86L39.9497 432.06L38.9697 429.48L39.1797 427.14L46.5997 431.16L51.2897 429.66L53.1797 429.24L54.9297 428.58L61.1597 424.02L62.9797 423.84L64.7297 424.5L67.2497 423.42L69.2097 421.44L70.2597 421.62L71.0997 422.04L73.1997 426.18L76.3497 426.9L75.2997 422.88L80.5497 420.96L85.2397 421.92L85.7997 424.74L88.5997 431.16L88.3897 433.38L89.3697 436.02L90.9797 438.78L95.8797 442.86L96.8597 446.94L98.6097 448.38L100.85 449.1L104.49 451.92L106.8 455.76L104.35 456.6L105.26 458.94L112.05 467.16L117.86 475.86L112.12 477L106.52 480L103.51 481.14V484.08L104.7 487.14L104.42 489.9L101.9 488.22L99.3797 486.12L94.6197 483L89.7197 483.36L85.3097 485.46L78.3797 484.32L75.6497 482.76L73.0597 480.84L69.8397 479.64L66.8997 479.1L61.0197 476.76L60.1797 475.56L58.9897 474.6L57.3797 475.14L56.3297 475.74L55.3497 475.02L54.5097 474L53.3897 473.76L52.6897 471.36L52.3397 471.12L51.6397 470.76L50.9397 470.22L50.5197 469.5L50.6597 468.66L51.4297 468.48L52.2697 468.54H52.6897L51.4297 461.22L51.3597 460.62L47.9997 453.24L40.1597 436.02Z" fill="#6F9C76" stroke="white" stroke-width="0.5" stroke-linecap="round" stroke-linejoin="round"/>
<path d="M53.3896 473.76L54.5096 474L55.3496 475.02L56.3296 475.74L57.3796 475.14L58.9896 474.6L60.1796 475.56L61.0196 476.76L66.8996 479.1L69.8396 479.64L73.0596 480.84L75.6496 482.76L78.3796 484.32L85.3096 485.46L89.7196 483.36L94.6196 483L99.3796 486.12L101.9 488.22L104.42 489.9L104.7 487.14L103.51 484.08V481.14L106.52 480L112.12 477L117.86 475.86L119.82 477.6L122.06 479.22L124.79 480.18L127.17 480.24L132.21 482.34L134.8 482.28L136.2 484.02L132.84 484.86L130.67 486.72L132.56 489.24L135.08 491.34L134.1 495.3L129.13 494.34L126.05 491.82L122.62 489.66L119.96 488.94L117.37 489.54L118.98 492.12L122.2 493.86L125.56 498.06L126.82 502.02L123.95 505.02L118.28 504.18L119.96 505.86L120.73 508.14L119.61 511.02L118.14 513.72L119.19 516.42L121.64 518.46L124.51 520.14L127.1 522.12L124.86 524.34L122.34 526.56L120.1 527.34L119.12 528.66L119.61 530.1L120.87 530.7L123.74 531.72L122.76 533.4L119.82 534.3L118.07 537V538.56L118.35 540L118.42 540.18L117.37 540L116.6 539.7L116.04 539.1L115.34 538.44L114.08 538.14L113.38 538.32L112.75 538.8L112.12 539.16H111.28L111 538.98L110.72 538.74L109.74 537.54L109.18 537.24L109.11 537.18L107.92 536.82L101.06 534.72L98.1897 534.18L96.2296 533.82L92.7296 531.42L91.8897 531.12L90.3496 530.46L89.1596 531.48L86.1496 529.38L72.9897 517.44L71.9396 516.72L71.7996 516.6L71.4496 516.18L71.2396 515.64L71.3096 514.44L70.8897 513.84L70.3296 513.18L68.8596 511.56L61.4396 498.06L61.0896 496.8L61.1596 495.6V494.46L60.8796 493.74L59.5496 491.34L58.2196 484.86L55.2096 480.3L53.3896 473.76Z" fill="#6F9C76" stroke="white" stroke-width="0.5" stroke-linecap="round" stroke-linejoin="round"/>
<path d="M118.42 540.18L118.35 540L118.07 538.56V537L119.82 534.3L122.76 533.4L123.74 531.72L120.87 530.7L119.61 530.1L119.12 528.66L120.1 527.34L122.34 526.56L124.86 524.34L127.1 522.12L124.51 520.14L121.64 518.46L119.19 516.42L118.14 513.72L119.61 511.02L120.73 508.14L119.96 505.86L118.28 504.18L123.95 505.02L126.82 502.02L125.56 498.06L122.2 493.86L118.98 492.12L117.37 489.54L119.96 488.94L122.62 489.66L126.05 491.82L129.13 494.34L134.1 495.3L135.08 491.34L132.56 489.24L130.67 486.72L132.84 484.86L136.2 484.02L139.35 483.6L142.5 483L143.62 480.72H146.35L153.49 479.88L155.8 483.6L154.75 486.06L157.62 486.48L161.47 485.94L163.29 487.86L163.15 489.18L165.25 490.5L164.41 491.22V492.54L162.87 493.08L163.15 494.1L162.03 496.56L163.15 498.78L156.92 502.8L154.96 508.74L157.76 510.48L160.84 511.44L162.24 511.26L163.15 511.98L162.38 513.42L161.4 514.68L161.96 517.08L164.62 518.28L166.51 518.04L168.26 518.34L167.7 519.54L166.23 520.74L167.98 526.08L162.73 528L163.15 530.22L165.39 531.48L166.93 531.6L168.33 532.26L168.26 533.4L167.07 533.94L169.03 536.46L173.09 538.08L174 538.5L171.55 540.96L164.9 540.66L162.17 540.96L160 541.68L157.76 542.76L153.84 545.28L152.72 545.52L151.6 545.7L148.94 544.86L146.07 543.6L144.46 543.18L143.34 542.88L133.96 543.84L131.3 543.36L129.97 542.22L129.13 540.72L128.43 539.82L127.94 539.16L125.21 540.54L122.76 540.72L118.42 540.18Z" fill="#6F9C76" stroke="white" stroke-width="0.5" stroke-linecap="round" stroke-linejoin="round"/>
<path d="M174 538.5L173.09 538.08L169.03 536.46L167.07 533.94L168.26 533.4L168.33 532.26L166.93 531.6L165.39 531.48L163.15 530.22L162.73 528L167.98 526.08L166.23 520.74L167.7 519.54L168.26 518.34L166.51 518.04L164.62 518.28L161.96 517.08L161.4 514.68L162.38 513.42L163.15 511.98L162.24 511.26L160.84 511.44L157.76 510.48L154.96 508.74L156.92 502.8L163.15 498.78L162.03 496.56L163.15 494.1L162.87 493.08L164.41 492.54L173.58 494.1L185.41 497.76L188.56 498.18L191.64 497.52L194.72 497.28L197.17 498.96L199.06 500.82L204.94 501.84L208.37 502.8L209.14 500.34L207.67 496.8L204.66 493.98L208.65 491.76L212.71 489.84L217.26 488.58L220.76 486.3L219.22 483.18L219.99 480.06H222.02L224.26 479.88L225.59 478.32L225.52 476.46L227.55 477.66L229.02 476.16H233.08L237.14 476.58L239.87 477.42L241.06 479.94L242.67 480.18L244.42 480.12L245.89 479.22L247.92 478.98L250.93 482.4L253.45 486L257.44 487.44L261.85 485.34L263.46 483.96L265.91 483.12L270.6 482.04L280.19 478.86L282.01 477.78L282.36 478.14L283.83 478.32L288.1 477L292.58 477.84L294.68 474.9V473.7L294.61 472.56L295.31 471.72L296.01 470.7L295.24 468.84L295.17 466.5L298.32 464.28L302.17 462.84L305.11 460.38L308.54 458.16L312.88 457.5L315.75 454.56L320.58 459.66L322.4 459.78L324.5 460.02L327.16 462.66L331.08 463.74L332.55 464.1L327.58 470.82L322.54 475.2L313.16 480.9L310.08 481.68L306.02 483.54L276.06 503.76L270.04 506.58L250.58 512.46L250.3 510.48V510.36L249.18 509.58H249.11L248.9 509.64L247.92 509.88L247.29 510.96L246.94 513.3L246.1 514.2L244.7 514.56L242.81 515.22L239.31 517.08L235.81 518.4L219.01 521.46L210.82 523.86L201.93 525.3L197.87 526.62L195.42 529.56L191.01 528.84L188.35 529.74L186.81 530.22L180.58 534.18L174.42 538.14L174 538.5Z" fill="#6F9C76" stroke="white" stroke-width="0.5" stroke-linecap="round" stroke-linejoin="round"/>
<path d="M332.55 464.099L331.08 463.739L327.16 462.659L324.5 460.019L322.4 459.779L320.58 459.659L315.75 454.559L319.95 403.499L319.11 400.739L317.22 398.339V395.639L316.1 392.999L316.8 390.239L317.15 387.599L312.39 385.139L306.65 383.879L305.81 383.219L304.76 382.739H303.57L302.31 382.259L301.05 380.339L300.35 378.179L298.32 374.879L300.21 370.559L303.57 367.139L306.16 365.399L302.66 361.199L302.17 358.199L299.93 354.839L296.36 352.199L295.73 349.499L295.94 346.139L294.05 338.819L294.33 336.959L293.28 336.779L292.3 336.239L294.68 333.059L291.46 332.339L287.47 334.199L285.51 334.799L283.69 335.459L283.13 336.779L282.01 338.279L279.77 338.759L278.16 338.879V340.679L279.07 342.299L279.21 343.979L278.51 345.359L277.39 346.499L276.62 347.459L273.33 349.019L269.34 348.899L269.41 354.239L270.25 359.459L267.24 361.319L263.95 362.279L262.55 359.999L261.29 357.359L260.73 354.839L259.26 352.319L258.14 350.699L257.44 349.439L255.48 349.139L254.08 349.439L251.7 347.399L249.88 344.099L248.83 337.979L248.2 336.239L247.71 334.499L248.13 333.239L249.04 331.799L250.72 325.019L250.16 318.059L242.95 316.739L235.04 320.519L231.61 323.279L229.65 323.939L228.04 324.239L225.1 325.139L221.11 319.439L219.85 316.079L219.64 313.799L218.59 311.819L216.14 310.559L215.72 310.199L217.26 303.539L216.91 300.899L215.72 297.719L215.86 295.379H218.87L224.89 294.899L227.83 294.479L233.71 296.399L238.47 300.479L246.31 302.579L250.09 304.439L253.24 304.799L253.66 303.359L254.36 301.679L255.41 300.779L256.32 299.279L255.83 295.979L256.53 292.859L260.94 293.579L266.12 293.339L270.39 294.539L275.92 301.439L279.49 304.319L284.39 305.519L289.5 306.419L289.29 310.559L287.68 314.639L288.03 316.979L289.5 319.019L294.61 321.659L297.34 323.939L307.91 325.499L318.69 324.539L322.47 322.679L322.54 326.219L323.8 329.639L324.29 337.499L325.41 339.779L331.08 334.979L334.37 332.699L338.78 332.099L341.86 331.679L342 332.219L343.33 332.459L344.66 331.019H345.64L346.9 336.659L346.83 338.699H347.95V338.639L348.09 336.719L348.51 334.799L349.14 333.119L350.19 331.979V331.019L350.05 330.779L349.7 329.939L349.98 329.459L350.89 329.819L352.36 331.019L352.85 332.099L353.2 335.099L355.72 338.459L359.71 350.339L358.94 383.099L359.36 385.319L361.04 390.239L361.25 393.119L360.34 398.699L352.92 420.779L352.5 423.059L352.36 426.059L351.8 428.579L349.49 432.479L348.93 434.219L348.02 436.619L344.94 440.819L343.47 442.799L344.52 446.159L342.77 450.179L332.55 464.099Z" fill="#6F9C76" stroke="white" stroke-width="0.5" stroke-linecap="round" stroke-linejoin="round"/>
<path d="M267.66 220.44L270.39 219.66L284.88 220.98L285.37 222.42L288.73 232.2L289.99 238.56L287.05 242.04L285.44 236.28L285.23 235.44L282.71 229.62H281.59L281.38 234.06L281.59 235.44L281.45 235.38L281.31 235.8V236.52L281.59 237.36L282.08 237.9L283.48 238.26L283.76 238.68L285.09 241.62L287.89 243.42L290.62 243.24L291.53 240.24H292.58L293.56 241.8L293.84 242.22L295.17 247.26L296.5 249.24L298.32 250.92L299.51 252.54L301.47 256.5L302.24 255.84L303.29 255.18L303.78 254.52L304.48 255.84L303.78 256.5L304.13 257.04L304.48 257.34V257.4L304.69 257.7L304.76 258.36L304.83 258.3L305.6 257.76L307.28 257.04L308.12 256.5L308.47 257.28L308.96 258.24L308.61 259.38L308.05 260.52V261.36L308.12 262.2L309.24 264.12L311.2 265.44L312.53 266.28L313.72 267.96L312.95 268.02L312.6 268.2L312.11 268.5L311.76 268.68L311.48 268.8L310.99 270.36L310.57 271.86L312.46 276.6L313.44 277.62L315.75 279.9H315.82L319.18 279.36H320.3L321.42 282.3L322.68 284.1L323.1 284.64L330.03 290.88L332.27 293.94L332.69 296.64L329.12 297.6L327.44 296.64L323.52 292.26L321.42 290.76L318.76 289.92H318.69H318.41L316.52 290.04L314.84 291.54L313.72 294.66L315.61 295.38L317.5 295.62L319.11 295.08L320.3 293.7L322.19 294.3L323.94 295.02L324.57 295.68L324.99 296.1L324.71 297.6L326.88 299.28L328.98 301.02L330.66 302.7L332.41 305.22L331.57 306.06L331.36 306.84L331.64 307.8L332.41 309.12L333.46 308.04L332.83 306.18L334.72 306.72L338.5 309.12L339.41 310.2L342.35 316.74L342.14 316.98L341.23 320.52L341.37 320.94V321L342.14 322.32L342.35 322.86L341.72 323.82L340.53 324.6L339.83 325.44L340.67 326.7L341.51 327.6L341.72 328.26L341.79 328.38L342.28 329.16L343.47 330.06L341.72 331.14L341.86 331.68L338.78 332.1L334.37 332.7L331.08 334.98L325.41 339.78L324.29 337.5L323.8 329.64L322.54 326.22L322.47 322.68L318.69 324.54L307.91 325.5L297.34 323.94L294.61 321.66L289.5 319.02L288.03 316.98L287.68 314.64L289.29 310.56L289.5 306.42L284.39 305.52L279.49 304.32L275.92 301.44L270.39 294.54L266.12 293.34L260.94 293.58L256.53 292.86L254.22 282.06L255.69 271.32L256.88 267.24L260.52 265.14L265.14 264.6L270.95 265.26L272.49 265.14L271.16 259.98L268.43 254.94L267.24 249.78L268.57 227.76L267.66 220.44ZM336.82 303.84L336.54 302.34L335.91 301.2L335.14 299.82L334.65 298.44L334.72 297L335.21 295.74L335.42 294.36L334.65 292.74L336.68 294.48L338.71 298.5L340.11 300.36L340.46 301.14L342 304.62L345.92 309.96L347.74 312.48L350.47 324.6V324.66L350.33 327.42L347.95 329.1L345.71 327.6L345.01 326.94L344.66 326.64L344.59 325.98L344.45 325.26V324.96L345.15 316.2L344.66 313.2L342.91 311.88L342.21 310.62L336.82 303.84Z" fill="#6F9C76" stroke="white" stroke-width="0.5" stroke-linecap="round" stroke-linejoin="round"/>
<path d="M85.2403 421.919L88.8103 419.159L84.8203 415.559L85.6603 413.879L86.3603 411.959L88.1103 409.559L90.1403 407.399L92.6603 406.439L99.3803 412.259L101.34 414.479L103.86 416.099L104.98 415.559L106.66 415.259L107.78 416.459L108.55 417.839L112.61 418.619L117.51 416.219L119.54 416.039L121.99 416.099L125.42 417.779L129.9 419.099L133.05 419.459L136.27 419.399L136.2 421.679L137.25 422.699L136.06 423.659L135.43 425.099L138.79 427.259L142.71 427.559L151.11 429.179L159.93 430.199L163.36 429.719L167.35 429.419L172.67 429.599L177.71 428.999L186.88 424.919L187.3 430.019L188.49 429.539L189.68 429.119L191.92 431.219L194.65 431.939L194.3 433.259L193.81 434.339L193.18 434.879L188.77 436.559L188 438.419L189.75 440.699L192.2 442.439L195.91 443.039L199.76 441.659L203.05 439.559L205.99 439.439L203.33 442.919L201.72 446.459L198.71 449.519L197.17 452.639L195.63 458.639L192.55 462.359L190.1 466.319L190.59 468.599L191.64 470.819L191.78 479.399L193.53 482.399L195.84 484.979L198.92 486.419L201.86 488.219L203.4 490.739L204.66 493.979L207.67 496.799L209.14 500.339L208.37 502.799L204.94 501.839L199.06 500.819L197.17 498.959L194.72 497.279L191.64 497.519L188.56 498.179L185.41 497.759L173.58 494.099L164.41 492.539V491.219L165.25 490.499L163.15 489.179L163.29 487.859L161.47 485.939L157.62 486.479L154.75 486.059L155.8 483.599L153.49 479.879L146.35 480.719H143.62L142.5 482.999L139.35 483.599L136.2 484.019L134.8 482.279L132.21 482.339L127.17 480.239L124.79 480.179L122.06 479.219L119.82 477.599L117.86 475.859L112.05 467.159L105.26 458.939L104.35 456.599L106.8 455.759L104.49 451.919L100.85 449.099L98.6103 448.379L96.8603 446.939L95.8803 442.859L90.9803 438.779L89.3703 436.019L88.3903 433.379L88.6003 431.159L85.8003 424.739L85.2403 421.919Z" fill="#6F9C76" stroke="white" stroke-width="0.5" stroke-linecap="round" stroke-linejoin="round"/>
<path d="M315.75 454.56L312.88 457.5L308.54 458.16L305.11 460.38L302.17 462.84L298.32 464.28L295.17 466.5L295.24 468.84L296.01 470.7L295.31 471.72L294.61 472.56L294.68 473.7V474.9L292.58 477.84L288.1 477L283.83 478.32L282.36 478.14L282.01 477.78L280.19 478.86L270.6 482.04L265.91 483.12L263.46 483.96L261.85 485.34L257.44 487.44L253.45 486L250.93 482.4L247.92 478.98L245.89 479.22L244.42 480.12L242.67 480.18L241.06 479.94L239.87 477.42L237.14 476.58L233.08 476.16H229.02L227.55 477.66L225.52 476.46L225.59 478.32L224.26 479.88L222.02 480.06H219.99L219.22 483.18L220.76 486.3L217.26 488.58L212.71 489.84L208.65 491.76L204.66 493.98L203.4 490.74L201.86 488.22L198.92 486.42L195.84 484.98L193.53 482.4L191.78 479.4L191.64 470.82L190.59 468.6L190.1 466.32L192.55 462.36L195.63 458.64L197.17 452.64L198.71 449.52L201.72 446.46L203.33 442.92L205.99 439.44L207.95 439.56L209.14 441.18L209.91 443.58L211.17 444.18L212.5 444.42L213.97 447.24L215.09 450.3L216.21 450.78L217.33 451.32L218.03 455.76L219.85 457.74L221.25 459.72L221.88 456L224.19 452.94L225.94 453.9L227.69 454.62L228.18 451.32L231.54 450.3L229.16 447.06L227.62 443.22V441.06L227.97 439.02L230.35 435.84L230.14 433.38L227.27 432.72L226.64 430.92L228.04 428.4L227.69 425.4L228.11 422.46L233.57 422.04L234.97 419.7L239.66 418.5L235.74 413.76L239.17 412.14L243.3 411.18L245.33 409.74L246.94 408L247.71 406.86L248.69 406.02L250.3 406.62L252.4 406.26L253.17 404.22L253.59 402.06L254.71 400.62L255.55 399.06L256.18 395.22L256.95 392.7V390.12L256.46 388.2L255.62 386.34L254.43 385.08L253.59 384.42L251.84 382.5L245.89 383.82L244 382.14L242.39 379.26L239.94 377.16L237.91 374.94L238.4 372.12L240.29 369.66L242.95 369.96L245.19 372.06L247.85 371.1L249.32 368.94L253.73 364.14L254.99 361.5V358.62L261.29 357.36L262.55 360L263.95 362.28L267.24 361.32L270.25 359.46L269.41 354.24L269.34 348.9L273.33 349.02L276.62 347.46L277.39 346.5L278.51 345.36L279.21 343.98L279.07 342.3L278.16 340.68V338.88L279.77 338.76L282.01 338.28L283.13 336.78L283.69 335.46L285.51 334.8L287.47 334.2L291.46 332.34L294.68 333.06L292.3 336.24L293.28 336.78L294.33 336.96L294.05 338.82L295.94 346.14L295.73 349.5L296.36 352.2L299.93 354.84L302.17 358.2L302.66 361.2L306.16 365.4L303.57 367.14L300.21 370.56L298.32 374.88L300.35 378.18L301.05 380.34L302.31 382.26L303.57 382.74H304.76L305.81 383.22L306.65 383.88L312.39 385.14L317.15 387.6L316.8 390.24L316.1 393L317.22 395.64V398.34L319.11 400.74L319.95 403.5L315.75 454.56Z" fill="#6F9C76" stroke="white" stroke-width="0.5" stroke-linecap="round" stroke-linejoin="round"/>
<path d="M85.2402 399L85.7302 397.86L85.6602 396.6L83.2802 390L84.1202 385.92L86.1502 381.9L88.5302 380.46L89.7202 378.12L86.2902 377.28L82.3702 378.06L80.4102 374.58L81.1102 370.62L83.6302 369.48L85.7302 367.8L86.1502 363L87.7602 361.92L87.4802 360.06L90.7702 358.44L94.1302 355.86L97.6302 353.7L101.41 352.2L109.32 350.7L111.07 350.64L112.19 349.26L112.75 347.64L112.54 344.76L113.1 342.12L116.67 340.92L120.52 341.34L122.9 343.44L124.37 346.14L126.33 350.4L133.33 355.62L133.05 358.32L134.45 359.16L138.51 361.14L140.47 363.18L140.12 365.64V367.68L142.5 369.66L144.32 371.7L143.41 373.56L142.15 375.24L140.4 375.6L138.65 375.72L136.13 378.06L130.53 378.84L128.71 380.28L131.16 385.32L132.28 387.06L131.16 389.22L131.02 391.98L131.23 392.4L131.79 392.52L130.39 394.5L128.15 396.18L126.89 396.54L126.05 397.62L126.89 398.64L127.94 399.54L126.82 404.76L128.22 408.78L132.91 410.04L136.62 412.44L137.88 416.1L138.16 417.96L136.27 419.4L133.05 419.46L129.9 419.1L125.42 417.78L121.99 416.1L119.54 416.04L117.51 416.22L112.61 418.62L108.55 417.84L107.78 416.46L106.66 415.26L104.98 415.56L103.86 416.1L101.34 414.48L99.3802 412.26L92.6602 406.44L90.1402 407.4L90.0702 406.02L89.8602 404.7L92.0302 402.96L91.5402 400.44L88.7402 399.24L85.2402 399Z" fill="#6F9C76" stroke="white" stroke-width="0.5" stroke-linecap="round" stroke-linejoin="round"/>
<path d="M215.72 310.2L216.14 310.56L218.59 311.82L219.64 313.8L219.85 316.08L221.11 319.44L225.1 325.14L228.04 324.24L229.65 323.94L231.61 323.28L235.04 320.52L242.95 316.74L250.16 318.06L250.72 325.02L249.04 331.8L248.13 333.24L247.71 334.5L248.2 336.24L248.83 337.98L249.88 344.1L251.7 347.4L254.08 349.44L255.48 349.14L257.44 349.44L258.14 350.7L259.26 352.32L260.73 354.84L261.29 357.36L254.99 358.62V361.5L253.73 364.14L249.32 368.94L247.85 371.1L245.19 372.06L242.95 369.96L240.29 369.66L238.4 372.12L237.91 374.94L239.94 377.16L242.39 379.26L244 382.14L245.89 383.82L251.84 382.5L253.59 384.42L254.43 385.08L255.62 386.34L256.46 388.2L256.95 390.12V392.7L256.18 395.22L255.55 399.06L254.71 400.62L253.59 402.06L253.17 404.22L252.4 406.26L250.3 406.62L248.69 406.02L247.71 406.86L246.94 408L245.33 409.74L243.3 411.18L239.17 412.14L235.74 413.76L239.66 418.5L234.97 419.7L233.57 422.04L228.11 422.46L227.69 425.4L228.04 428.4L226.64 430.92L227.27 432.72L230.14 433.38L230.35 435.84L227.97 439.02L227.62 441.06V443.22L229.16 447.06L231.54 450.3L228.18 451.32L227.69 454.62L225.94 453.9L224.19 452.94L221.88 456L221.25 459.72L219.85 457.74L218.03 455.76L217.33 451.32L216.21 450.78L215.09 450.3L213.97 447.24L212.5 444.42L211.17 444.18L209.91 443.58L209.14 441.18L207.95 439.56L205.99 439.44L203.05 439.56L199.76 441.66L195.91 443.04L192.2 442.44L189.75 440.7L188 438.42L188.77 436.56L193.18 434.88L193.81 434.34L194.3 433.26L194.65 431.94L191.92 431.22L189.68 429.12L188.49 429.54L187.3 430.02L186.88 424.92L189.96 424.26L191.57 422.22L190.1 421.62L188.63 420.78L191.01 417.48L190.38 416.52L189.54 415.68L188.63 413.52L187.51 411.6L182.4 409.38L182.19 407.16L185.13 407.04L188.14 407.16L190.31 405.06L191.08 402.3L193.67 400.26L196.54 399.06L202.7 397.92L206.27 393.36L206.97 390.66L208.44 388.2L209.77 387.18L210.82 385.98L211.38 384.96L211.1 384L210.26 381.54L211.03 380.28L212.15 379.08L211.52 378.36L210.82 377.64L210.47 376.44L210.82 375.18L209.63 371.7L209.77 369.18L211.8 368.1L215.23 367.26L219.57 363.84L219.85 359.28L216.35 349.2L214.95 328.14L214.11 316.74L215.72 310.2Z" fill="#6F9C76" stroke="white" stroke-width="0.5" stroke-linecap="round" stroke-linejoin="round"/>
<path d="M215.86 295.38L215.72 297.72L216.91 300.9L217.26 303.54L215.72 310.2L214.11 316.74L214.95 328.14L209.84 327.66L206.55 328.08L204.73 330.66L203.75 331.44L202.56 331.98L200.6 329.88L197.94 331.02L191.29 330.96L186.18 334.62L181.56 335.22L175.54 330.96L173.16 330.12L170.92 331.32L169.94 333.48L170.5 338.58L167 341.88L161.12 341.58L150.83 336.06L147.54 332.1L147.61 330.66L148.52 329.64L148.87 327.96L148.38 326.22L147.54 324.72L146.56 323.34L144.95 320.52L145.37 317.58L147.68 315.78L148.24 314.58L148.17 313.32L148.66 311.7L148.73 310.08L145.79 307.56L144.88 303.24L144.39 298.62L143.62 297.6L142.99 297.24V294.84L141.87 292.44L140.26 290.16L139.14 287.94L137.88 287.64L136.48 286.98L136.06 284.52L136.83 282.24L140.26 280.08L145.65 278.34L148.52 275.4L151.11 275.46L153.07 276.54L155.45 275.16L156.64 273.48L157.76 272.76L158.81 272.28L158.74 271.26L158.32 270.6L160.42 268.8L161.96 266.76V264.18L162.8 261.9H164.48L165.67 262.2L166.58 261.6L169.73 258.78L171.83 257.22L174.91 255.9L178.27 254.7L179.67 255.9L181.91 258.06L181.84 260.52L182.75 261.3L184.08 261.78L185.13 261.18L185.2 260.28L187.16 259.5L189.05 259.98L191.57 260.4L193.95 261.66L189.12 265.98L187.51 272.58L187.09 275.82L185.55 281.46L184.99 282.42L184.71 283.44L180.02 284.34L178.9 288.18L181.07 296.64L180.79 299.4L182.4 301.32L186.67 302.1L190.73 300.66L193.88 298.14L195.28 299.82L197.8 301.14L198.5 298.68L198.85 296.22L207.46 296.7L215.86 295.38Z" fill="#6F9C76" stroke="white" stroke-width="0.5" stroke-linecap="round" stroke-linejoin="round"/>
<path d="M205.36 209.34L207.81 208.74L209.7 211.14L212.29 212.04L214.81 213.66L215.44 216.6L217.47 218.34L224.26 217.74L236.51 220.32H239.38L242.04 221.64L244.63 223.38L247.5 224.64L249.53 224.46L250.72 225.9L250.93 227.64L250.86 229.44L251.42 232.08L250.58 233.82L248.69 234.84L249.32 235.26L250.16 235.5L254.15 234.66L256.46 230.1L257.3 228.78L258.28 225.12L259.4 224.28L260.66 223.5L261.71 221.82L263.18 220.44H265.21H267.66L268.57 227.76L267.24 249.78L268.43 254.94L271.16 259.98L272.49 265.14L270.95 265.26L265.14 264.6L260.52 265.14L256.88 267.24L255.69 271.32L254.22 282.06L256.53 292.86L255.83 295.98L256.32 299.28L255.41 300.78L254.36 301.68L253.66 303.36L253.24 304.8L250.09 304.44L246.31 302.58L238.47 300.48L233.71 296.4L227.83 294.48L224.89 294.9L218.87 295.38H215.86L207.46 296.7L198.85 296.22L198.5 298.68L197.8 301.14L195.28 299.82L193.88 298.14L190.73 300.66L186.67 302.1L182.4 301.32L180.79 299.4L181.07 296.64L178.9 288.18L180.02 284.34L184.71 283.44L184.99 282.42L185.55 281.46L187.09 275.82L187.51 272.58L189.12 265.98L193.95 261.66L191.57 260.4L189.05 259.98L187.16 259.5L185.2 260.28L185.13 261.18L184.08 261.78L182.75 261.3L181.84 260.52L181.91 258.06L179.67 255.9L178.27 254.7L178.48 251.04L181.63 247.2L178.41 245.04L178.69 240.18L179.81 234.72L182.12 229.44L183.45 223.56L185.83 218.22L192.2 217.2H199.34L201.44 216.12L202.07 213.66L203.33 211.2L205.36 209.34Z" fill="#6F9C76" stroke="white" stroke-width="0.5" stroke-linecap="round" stroke-linejoin="round"/>
<path d="M46.8102 357.66L46.3902 349.38L40.4402 321.9L40.1602 317.1L40.4402 312.3L42.1902 308.46L44.6402 304.92L45.2702 303.3L46.3902 301.92L48.7002 301.44L50.6602 300.54L49.7502 299.22L47.7902 298.8L48.5602 297L49.6802 295.38L51.7802 294.84L54.0902 294.66L55.8402 294.06L56.9602 292.74L56.3302 291.3L55.4902 289.74L55.9802 286.02L57.5202 282.66L57.8002 280.98L58.4302 279.48L60.5302 278.52L62.4902 277.38L62.9102 275.88L63.6802 274.44L67.1102 272.94L67.7402 271.68L68.0202 270.24L69.0002 268.32L71.3802 267.36L71.2402 267.6L71.1002 267.84L72.0802 267.6L73.3402 266.46L73.4102 264.78L74.3202 263.4L77.6802 265.02L79.7102 263.7L77.7502 260.58L78.7302 258.96L79.9202 257.4L80.0602 254.22L79.9202 250.44L80.5502 248.64L80.9702 246.96L79.0802 245.88L76.8402 245.22L75.3002 242.76L74.7402 240L73.0602 234.48L73.1302 231.66L72.7802 229.02L76.2802 230.7L91.1902 236.52L94.3402 237.24L97.4202 238.32L99.8702 239.76L102.81 240.18L108.2 241.92L113.03 245.34L115.69 247.62L118.63 249.18L121.64 249.06L124.09 250.8V252.54L123.81 254.28L124.3 257.28L124.09 259.8L124.37 262.26L126.61 263.04L129.27 263.22L130.6 265.14L131.02 267.48L132.49 270.72L133.33 274.02L132.7 278.88L136.83 282.24L136.06 284.52L136.48 286.98L137.88 287.64L139.14 287.94L140.26 290.16L141.87 292.44L142.99 294.84V297.24L143.62 297.6L144.39 298.62L144.88 303.24L145.79 307.56L148.73 310.08L148.66 311.7L148.17 313.32L148.24 314.58L147.68 315.78L145.37 317.58L144.95 320.52L146.56 323.34L147.54 324.72L148.38 326.22L148.87 327.96L148.52 329.64L147.61 330.66L147.54 332.1L145.58 332.88L143.69 333.3L145.02 335.1L145.93 336.96L144.25 337.68L141.87 337.38L139.56 338.46L139.77 340.02L139.56 341.46L136.76 341.28L134.31 339.78H131.93L131.44 342.54L130.74 343.32L130.18 344.16L130.32 345.06L130.6 345.72L127.73 346.44L124.37 346.14L122.9 343.44L120.52 341.34L116.67 340.92L113.1 342.12L112.54 344.76L112.75 347.64L112.19 349.26L111.07 350.64L109.32 350.7L101.41 352.2L97.6302 353.7L94.1302 355.86L90.7702 358.44L87.4802 360.06L84.6802 358.32L80.6902 354.36L79.7102 353.22L79.2902 352.02L77.8202 350.64L73.3402 351.36L69.3502 353.76L64.7302 354.9L60.2502 352.26L56.4002 352.38L50.2402 356.52L46.8102 357.66Z" fill="#6F9C76" stroke="white" stroke-width="0.5" stroke-linecap="round" stroke-linejoin="round"/>
<path d="M177.78 129.84L182.33 128.28L187.09 128.34L191.15 130.38L198.22 134.58L200.67 136.92L202 138.42L203.54 139.44L201.65 143.04L198.92 146.52L198.99 152.52L202 158.16L203.19 161.1L200.74 166.08L200.88 168.96L202.21 170.28L203.96 171.72L204.59 175.08L208.86 180.54L211.17 185.16L212.57 186.78L214.46 187.98L215.51 190.14L214.18 192.18L211.94 193.5L209.91 195.18L209.28 196.86L208.86 198.6L205.36 209.34L203.33 211.2L202.07 213.66L201.44 216.12L199.34 217.2H192.2L185.83 218.22L183.45 223.56L182.12 229.44L179.81 234.72L178.69 240.18L178.41 245.04L181.63 247.2L178.48 251.04L178.27 254.7L174.91 255.9L171.83 257.22L169.73 258.78L166.58 261.6L165.67 262.2L164.48 261.9H162.8L161.96 264.18V266.76L160.42 268.8L158.32 270.6L158.74 271.26L158.81 272.28L157.76 272.76L156.64 273.48L155.45 275.16L153.07 276.54L151.11 275.46L148.52 275.4L145.65 278.34L140.26 280.08L136.83 282.24L132.7 278.88L133.33 274.02L132.49 270.72L131.02 267.48L130.6 265.14L129.27 263.22L126.61 263.04L124.37 262.26L124.09 259.8L124.3 257.28L123.81 254.28L124.09 252.54V250.8L121.64 249.06L118.63 249.18L115.69 247.62L113.03 245.34L108.2 241.92L102.81 240.18L99.8705 239.76L97.4205 238.32L94.3405 237.24L91.1905 236.52L76.2805 230.7L72.7805 229.02L71.0305 227.04L68.6505 225.36L65.3605 225.48L62.4905 223.62L59.7605 224.7H56.4005L55.4205 222.18L51.3605 208.14L48.9805 204.18L50.8005 200.76L53.5305 199.68L54.2305 198.42L54.4405 197.4L59.4805 193.86L62.4205 188.52L61.5105 182.76L62.8405 183.3L64.3805 183.48L64.7305 170.52L63.4705 162.3L70.6105 164.82L78.5205 164.88L94.2705 161.34L94.3405 165.84L95.9505 169.8L98.4005 170.52L100.78 171.48L101.83 173.16L102.46 175.08L104.14 178.02L107.57 179.58L109.25 180L110.79 180.06L113.24 176.28L116.11 175.2L119.12 169.14L125.49 162.06L130.39 160.14L133.4 161.46L136.13 163.14H141.24L145.58 160.32L149.64 157.14L153.14 153.6L155.1 151.02L157.41 148.68L161.26 146.04L159.86 142.44L156.92 139.14L152.72 137.88L152.44 134.82L164.41 134.46L169.1 131.64L173.37 130.56L177.78 129.84Z" fill="#6F9C76" stroke="white" stroke-width="0.5" stroke-linecap="round" stroke-linejoin="round"/>
<path d="M186.88 424.92L177.71 429L172.67 429.6L167.35 429.42L163.36 429.72L159.93 430.2L151.11 429.18L142.71 427.56L138.79 427.26L135.43 425.1L136.06 423.66L137.25 422.7L136.2 421.68L136.27 419.4L138.16 417.96L137.88 416.1L136.62 412.44L132.91 410.04L128.22 408.78L126.82 404.76L127.94 399.54L126.89 398.64L126.05 397.62L126.89 396.54L128.15 396.18L130.39 394.5L131.79 392.52L131.23 392.4L131.02 391.98L135.64 392.34L142.92 401.58L147.61 403.98L151.11 400.8L153 396.12L151.11 393.9L148.73 391.92L145.86 387.42L144.6 386.94L143.27 387.3L146.91 384.78L152.79 385.38L156.01 384.78L160.7 382.02L163.85 381.96L166.65 382.56L177.01 372L180.3 367.26L178.83 362.04L178.34 358.02L181.14 360.18L183.45 362.82L185.13 363.36L186.53 363.48L190.24 368.52L196.12 368.88L203.05 368.04L209.77 369.18L209.63 371.7L210.82 375.18L210.47 376.44L210.82 377.64L211.52 378.36L212.15 379.08L211.03 380.28L210.26 381.54L211.1 384L211.38 384.96L210.82 385.98L209.77 387.18L208.44 388.2L206.97 390.66L206.27 393.36L202.7 397.92L196.54 399.06L193.67 400.26L191.08 402.3L190.31 405.06L188.14 407.16L185.13 407.04L182.19 407.16L182.4 409.38L187.51 411.6L188.63 413.52L189.54 415.68L190.38 416.52L191.01 417.48L188.63 420.78L190.1 421.62L191.57 422.22L189.96 424.26L186.88 424.92Z" fill="#6F9C76" stroke="white" stroke-width="0.5" stroke-linecap="round" stroke-linejoin="round"/>
<path d="M179.81 125.4L178.48 127.44L177.78 129.84L173.37 130.56L169.1 131.64L164.41 134.46L152.44 134.82L152.72 137.88L156.92 139.14L159.86 142.44L161.26 146.04L157.41 148.68L155.1 151.02L153.14 153.6L149.64 157.14L145.58 160.32L141.24 163.14H136.13L133.4 161.46L130.39 160.14L125.49 162.06L119.12 169.14L116.11 175.2L113.24 176.28L110.79 180.06L109.25 180L107.57 179.58L104.14 178.02L102.46 175.08L101.83 173.16L100.78 171.48L98.4001 170.52L95.9501 169.8L94.3401 165.84L94.2701 161.34L88.1101 154.56L84.3301 152.04V150.24L84.9601 148.14L89.0901 147.78L91.5401 143.1L96.0201 140.94L101.9 141.48L111 140.52L119.61 137.76L120.45 132.9L118 127.5L115.48 124.08L111.14 122.34L118.63 118.26L123.11 115.14L125.98 111.36L125.84 109.02L125.21 106.62V105.36L125.07 104.22L122.69 103.92L121.43 102.42L121.85 100.38L124.79 100.14L127.87 100.32L133.47 100.2L137.46 102.36L139.98 105.54L143.9 104.04L146.7 101.94L148.31 101.28L149.85 100.5L150.13 99.78L150.48 99.12L155.73 99L160.77 100.62L161.33 105.12L165.67 105.54L167.56 108.36L166.02 110.34L165.74 112.26L168.26 111.72L170.64 110.34L175.68 111L180.86 113.7L182.82 115.92L179.81 125.4Z" fill="#6F9C76" stroke="white" stroke-width="0.5" stroke-linecap="round" stroke-linejoin="round"/>
<path d="M131.02 391.98L131.16 389.22L132.28 387.06L131.16 385.32L128.71 380.28L130.53 378.84L136.13 378.06L138.65 375.72L140.4 375.6L142.15 375.24L143.41 373.56L144.32 371.7L142.5 369.66L140.12 367.68V365.64L140.47 363.18L138.51 361.14L134.45 359.16L133.05 358.32L133.33 355.62L126.33 350.4L124.37 346.14L127.73 346.44L130.6 345.72L130.32 345.06L130.18 344.16L130.74 343.32L131.44 342.54L131.93 339.78H134.31L136.76 341.28L139.56 341.46L139.77 340.02L139.56 338.46L141.87 337.38L144.25 337.68L145.93 336.96L145.02 335.1L143.69 333.3L145.58 332.88L147.54 332.1L150.83 336.06L161.12 341.58L167 341.88L170.5 338.58L169.94 333.48L170.92 331.32L173.16 330.12L175.54 330.96L181.56 335.22L186.18 334.62L191.29 330.96L197.94 331.02L200.6 329.88L202.56 331.98L203.75 331.44L204.73 330.66L206.55 328.08L209.84 327.66L214.95 328.14L216.35 349.2L219.85 359.28L219.57 363.84L215.23 367.26L211.8 368.1L209.77 369.18L203.05 368.04L196.12 368.88L190.24 368.52L186.53 363.48L185.13 363.36L183.45 362.82L181.14 360.18L178.34 358.02L178.83 362.04L180.3 367.26L177.01 372L166.65 382.56L163.85 381.96L160.7 382.02L156.01 384.78L152.79 385.38L146.91 384.78L143.27 387.3L144.6 386.94L145.86 387.42L148.73 391.92L151.11 393.9L153 396.12L151.11 400.8L147.61 403.98L142.92 401.58L135.64 392.34L131.02 391.98Z" fill="#6F9C76" stroke="white" stroke-width="0.5" stroke-linecap="round" stroke-linejoin="round"/>
</svg>
